<svg width="32" height="32" viewBox="0 0 32 32" fill="none" xmlns="http://www.w3.org/2000/svg">
<circle cx="15.89" cy="15.89" r="15.89" fill="#2878B7"/>
<path d="M24 17.7444V23.2601H20.7713V18.0807C20.7713 16.8027 20.3004 15.9283 19.157 15.9283C18.2825 15.9283 17.7444 16.5336 17.5426 17.0718C17.4753 17.2735 17.4081 17.5426 17.4081 17.8789V23.2601H14.1794C14.1794 23.2601 14.2466 14.5157 14.1794 13.6413H17.4081V14.9865C17.8117 14.3139 18.6188 13.3722 20.3004 13.3722C22.3856 13.3722 24 14.7848 24 17.7444ZM10.8161 9C9.73991 9 9 9.73991 9 10.6816C9 11.6233 9.67264 12.3632 10.7489 12.3632C11.8924 12.3632 12.565 11.6233 12.565 10.6816C12.6323 9.67265 11.9596 9 10.8161 9ZM9.20179 23.2601H12.4305V13.6413H9.20179V23.2601Z" fill="white"/>
</svg>
