<svg width="33" height="33" viewBox="0 0 33 33" fill="none" xmlns="http://www.w3.org/2000/svg">
<circle cx="16.7776" cy="16.6053" r="15.8877" fill="#10C700"/>
<path d="M13.8358 22.5055C14.8776 23.105 16.0819 23.4455 17.3659 23.4455C21.2841 23.4455 24.4683 20.2591 24.4683 16.3416C24.4683 12.4241 21.2841 9.23773 17.3659 9.23773H17.3629C13.4448 9.23773 10.2605 12.4233 10.2605 16.3416C10.2605 17.7226 10.6567 19.016 11.3436 20.1085L10.9455 21.6893L10.5431 23.2869L12.1461 22.9065L13.8358 22.5055Z" fill="#10C700" stroke="white" stroke-width="2"/>
<path d="M20.1132 19.0434L20.0664 19.0901C19.833 19.3254 19.5203 19.4651 19.1894 19.4819H18.9585C17.7366 19.4819 16.7543 19.0258 15.7166 17.991C14.6145 16.8889 14.1702 15.8511 14.2316 14.5181H14.2316C14.2483 14.1872 14.388 13.8745 14.6233 13.6411L14.6701 13.5943C14.966 13.2972 15.3843 13.1562 15.7997 13.2137C16.2151 13.2712 16.5795 13.5203 16.7836 13.8867L16.848 14.0036H16.8479C16.9291 14.1515 16.9602 14.3218 16.9364 14.4889C16.9128 14.6559 16.8355 14.8108 16.7163 14.9303L16.3246 15.322C16.5508 15.7573 16.847 16.1524 17.2016 16.4913C17.5406 16.8459 17.9356 17.1422 18.3709 17.3683L18.7597 16.9824C18.882 16.8623 19.0404 16.7858 19.2106 16.7646C19.3807 16.7435 19.553 16.7789 19.701 16.8655L19.8179 16.9298C20.1843 17.134 20.4335 17.4983 20.4909 17.9138C20.5484 18.3291 20.4074 18.7474 20.1103 19.0433L20.1132 19.0434Z" fill="white"/>
</svg>
